<?xml version="1.0" encoding="UTF-8" standalone="no"?>
<!-- Created with Inkscape (http://www.inkscape.org/) -->

<svg
   xmlns:dc="http://purl.org/dc/elements/1.1/"
   xmlns:cc="http://creativecommons.org/ns#"
   xmlns:rdf="http://www.w3.org/1999/02/22-rdf-syntax-ns#"
   xmlns:svg="http://www.w3.org/2000/svg"
   xmlns="http://www.w3.org/2000/svg"
   xmlns:xlink="http://www.w3.org/1999/xlink"
   xmlns:sodipodi="http://sodipodi.sourceforge.net/DTD/sodipodi-0.dtd"
   xmlns:inkscape="http://www.inkscape.org/namespaces/inkscape"
   version="1.1"
   width="1600"
   height="1000"
   id="svg3023"
   inkscape:version="0.48.1 r9760"
   sodipodi:docname="1aa.svg">
  <sodipodi:namedview
     pagecolor="#ffffff"
     bordercolor="#666666"
     borderopacity="1"
     objecttolerance="10"
     gridtolerance="10"
     guidetolerance="10"
     inkscape:pageopacity="0"
     inkscape:pageshadow="2"
     inkscape:window-width="1680"
     inkscape:window-height="1030"
     id="namedview3030"
     showgrid="false"
     inkscape:zoom="1.0000001"
     inkscape:cx="705.92963"
     inkscape:cy="624.1871"
     inkscape:window-x="-2"
     inkscape:window-y="-3"
     inkscape:window-maximized="1"
     inkscape:current-layer="layer1" />
  <style
     type="text/css"
     id="style3603" />
  <metadata
     id="metadata3029">
    <rdf:RDF>
      <cc:Work
         rdf:about="">
        <dc:format>image/svg+xml</dc:format>
        <dc:type
           rdf:resource="http://purl.org/dc/dcmitype/StillImage" />
        <dc:title />
      </cc:Work>
    </rdf:RDF>
  </metadata>
  <defs
     id="defs3027" />
  <g
     inkscape:groupmode="layer"
     id="layer2"
     inkscape:label="base"
     style="display:none">
    <image
       style="display:inline"
       y="0"
       x="0"
       id="image3091"
       xlink:href="file:///data/c1/mon/Render%202011/monier-visualiser/r/2_1_1/1.jpg"
       height="1000"
       width="1600" />
    <g
       id="1-"
       style="display:inline"
       inkscape:label="#g3077">
      <path
         sodipodi:nodetypes="cccccccc"
         inkscape:connector-curvature="0"
         style="fill:none;stroke:#00ffff;stroke-width:1px;stroke-linecap:butt;stroke-linejoin:miter;stroke-opacity:1"
         id="path3050"
         d="m 650.8574,404.26676 0.37444,182.59049 17.58376,8.67488 0.20235,-208.75791 -8.20179,-0.12655 -0.75389,9.21088 -3.95596,8.22794 z" />
      <path
         d="m 364.33376,426.54062 0.72799,106.93006 214.86655,-9.70989 -0.23959,-100.48219 z"
         id="path3276"
         style="fill:none;stroke:#00ffff;stroke-width:1px;stroke-linecap:butt;stroke-linejoin:miter;stroke-opacity:1"
         inkscape:connector-curvature="0"
         sodipodi:nodetypes="ccccc" />
      <path
         d="m 707.77478,233.81702 0.0392,105.09283 117.00569,0.0155 0.55078,-103.00115 z"
         id="path3278"
         style="fill:none;stroke:#00ffff;stroke-width:1px;stroke-linecap:butt;stroke-linejoin:miter;stroke-opacity:1"
         inkscape:connector-curvature="0"
         sodipodi:nodetypes="ccccc" />
      <path
         d="m 876.68633,205.95389 -0.29281,100.94508 176.77528,0.45719 0.832,-95.75415 z"
         id="path3280"
         style="fill:none;stroke:#00ffff;stroke-width:1px;stroke-linecap:butt;stroke-linejoin:miter;stroke-opacity:1"
         inkscape:connector-curvature="0"
         sodipodi:nodetypes="ccccc" />
      <path
         sodipodi:nodetypes="ccccc"
         inkscape:connector-curvature="0"
         style="fill:none;stroke:#00ffff;stroke-width:1px;stroke-linecap:butt;stroke-linejoin:miter;stroke-opacity:1"
         id="path3041"
         d="m 650.02478,239.31702 0.5392,99.09283 18.25569,0.2655 -0.19922,-104.00115 z" />
      <path
         d="m 556.21228,242.75452 0.0392,26.96783 26.94319,0.703 0.17578,-24.25115 -18.79659,3.99358 -2.46319,-7.05395 z"
         id="path3043"
         style="fill:none;stroke:#00ffff;stroke-width:1px;stroke-linecap:butt;stroke-linejoin:miter;stroke-opacity:1"
         inkscape:connector-curvature="0"
         sodipodi:nodetypes="ccccccc" />
      <path
         d="m 269.81384,261.31716 0.37443,61.67523 7.50749,-1.75494 0.46752,-64.95007 z"
         id="path3053"
         style="fill:none;stroke:#00ffff;stroke-width:1px;stroke-linecap:butt;stroke-linejoin:miter;stroke-opacity:1"
         inkscape:connector-curvature="0"
         sodipodi:nodetypes="ccccc" />
      <path
         sodipodi:nodetypes="ccccc"
         inkscape:connector-curvature="0"
         style="fill:none;stroke:#00ffff;stroke-width:1px;stroke-linecap:butt;stroke-linejoin:miter;stroke-opacity:1"
         id="path3055"
         d="m 248.24708,416.1835 -0.33267,81.82777 2.98445,3.77018 0.64429,-83.51162 z" />
      <path
         d="m 263.14479,424.31522 -1.21656,95.61635 5.45933,5.71473 0.46752,-98.36086 z"
         id="path3057"
         style="fill:none;stroke:#00ffff;stroke-width:1px;stroke-linecap:butt;stroke-linejoin:miter;stroke-opacity:1"
         inkscape:connector-curvature="0"
         sodipodi:nodetypes="ccccc" />
    </g>
    <g
       id="1"
       style="fill:none;display:inline">
      <path
         style="fill:none;stroke:#00ff00;stroke-width:0.99999994px;stroke-linecap:butt;stroke-linejoin:miter;stroke-opacity:1"
         d="m 655.96738,404.18417 -415.36891,5.92893 1.03981,147.44934 28.83453,57.86571 373.4732,-23.17341 0.46875,0.0625 23.59375,15.21875 44.00794,-1.06066 0.81862,18.85114 28.19791,13.28188 19.98775,-1.61152 0.14368,-212.67305 29.87783,-0.0977 -0.0453,174.23077 40.80315,-2.56637 -0.30701,-207.92834 -125.08333,0.60549 -45.71918,-3.22498 -0.75864,10.37898 z"
         id="path3082"
         inkscape:connector-curvature="0"
         sodipodi:nodetypes="cccccccccccccccccccc" />
      <path
         style="fill:none;stroke:#00ff00;stroke-width:0.99999994px;stroke-linecap:butt;stroke-linejoin:miter;stroke-opacity:1"
         d="m 970.22437,86.748377 -316.65462,145.414893 -89.15062,17.90623 -2.26141,-7.03665 -6.45879,-0.27122 -0.98512,-4.25949 133.28963,-55.38289 -114.36995,-3.58578 -19.03307,-26.20464 -16.36262,39.94319 1.63132,15.82241 -56.52862,21.44969 -211.51663,-7.8876 -8.66882,4.3995 -0.52052,124.80118 116.89697,-47.3961 -28.12149,0.14085 -0.13697,-50.98064 99.97993,1.34746 0.41329,20.05798 18.01615,-6.57919 55.33455,1.09247 0.2832,-18.1651 14.21224,-3.33479 0.1613,22.01372 46.53799,1.40082 0.60305,6.34967 43.5367,69.11916 201.60928,0.14568 0.5586,-34.86377 128.79859,-4.25637 16.79396,-0.59788 0.20894,298.60614 7.44862,-0.45895 -0.0429,-186.75131 298.75197,-6.62624 -0.4179,171.08403 71.6471,-4.10295 1.1176,-263.17108 -266.9773,-3.44362 0.2168,-153.95046 z"
         id="path3078"
         inkscape:connector-curvature="0"
         sodipodi:nodetypes="cccccccccccccccccccccccccccccccccccccccccc" />
    </g>
    <g
       id="3"
       style="fill:none;display:inline">
      <path
         d="m 226.08487,391.7546 -21.05164,-9.50409 -0.0383,-6.7137 263.39468,-107.56749 117.90133,3.5 0.55216,6.47851 43.43521,68.91214 -27.18931,0.32868 -0.0734,33.94941 49.21286,2.96446 -0.29425,4.01002 z"
         id="path3052"
         style="fill:none;stroke:#ff0000;stroke-width:1px;stroke-linecap:butt;stroke-linejoin:miter;stroke-opacity:1"
         inkscape:connector-curvature="0"
         sodipodi:nodetypes="cccccccccccc" />
      <path
         d="m 719.96626,168.5138 -144.26125,-5.58998 -41.42382,-54.55368 -0.0273,-5.96736 189.98021,11.32933 28.78783,-14.54193 54.08566,17.54071 177.50447,-59.917173 0.55558,4.872373 -338.86337,152.52295 -54.08233,9.92259 z"
         id="path3054"
         style="fill:none;stroke:#ff0000;stroke-width:1px;stroke-linecap:butt;stroke-linejoin:miter;stroke-opacity:1"
         inkscape:connector-curvature="0"
         sodipodi:nodetypes="cccccccccccc" />
      <path
         d="m 511.47089,161.08851 -13.17991,35.68746 0.0204,11.52567 -20.55395,8.4644 -222.72391,-6.1574 -0.29919,-5.11306 141.80707,-49.03207 z"
         id="path3056"
         style="fill:none;stroke:#ff0000;stroke-width:1px;stroke-linecap:butt;stroke-linejoin:miter;stroke-opacity:1"
         inkscape:connector-curvature="0"
         sodipodi:nodetypes="cccccccc" />
    </g>
    <g
       id="9"
       style="fill:none;display:inline">
      <path
         d="m 955.2414,346.18221 -0.62647,41.17985 -246.6743,1.28045 -105.0602,-7.64614 0.0962,-33.86738 101.33235,-0.33701 z"
         id="FeaturePorch"
         style="fill:none;stroke:#008080;stroke-width:1px;stroke-linecap:butt;stroke-linejoin:miter;stroke-opacity:1"
         inkscape:connector-curvature="0"
         sodipodi:nodetypes="ccccccc" />
    </g>
    <g
       id="7"
       style="fill:none;display:inline">
      <path
         d="m 1270.5726,583.67846 0.213,-171.00843 -285.03927,6.27683 0.065,185.43334 z"
         id="GaarageDoor"
         style="fill:none;stroke:#000000;stroke-width:1px;stroke-linecap:butt;stroke-linejoin:miter;stroke-opacity:1"
         inkscape:connector-curvature="0"
         sodipodi:nodetypes="ccccc" />
    </g>
    <g
       id="10"
       style="fill:none;display:inline">
      <path
         d="m 831.49559,387.95281 1.40304,204.47337 15.10711,3.99639 -0.11311,-208.47365 z"
         id="path3136"
         style="fill:none;stroke:#ffff00;stroke-width:1px;stroke-linecap:butt;stroke-linejoin:miter;stroke-opacity:1"
         inkscape:connector-curvature="0"
         sodipodi:nodetypes="ccccc" />
      <path
         d="m 874.49654,387.73716 -0.26763,221.2611 85.89657,30.22866 18.75485,-1.42755 -0.74473,-330.42242 -17.28622,0.52828 -128.23211,4.28921 -0.60977,34.70011 123.22875,-0.71362 -0.76777,41.25217 z"
         id="path3138"
         style="fill:none;stroke:#ffff00;stroke-width:1px;stroke-linecap:butt;stroke-linejoin:miter;stroke-opacity:1"
         inkscape:connector-curvature="0"
         sodipodi:nodetypes="ccccccccccc" />
    </g>
    <g
       id="8"
       style="fill:none;display:inline">
      <path
         d="m 790.98676,592.20369 -29.93999,1.00894 0.13603,-168.92838 29.86826,-0.092 z"
         id="frontdoor"
         style="fill:none;stroke:#00ffff;stroke-width:1px;stroke-linecap:butt;stroke-linejoin:miter;stroke-opacity:1"
         inkscape:connector-curvature="0"
         sodipodi:nodetypes="ccccc" />
    </g>
    <g
       id="4"
       style="display:inline">
      <path
         d="m 660.55618,389.84464 -0.39773,6.7979 -3.9826,0.70887 -0.17862,6.57677 -432.54273,5.86578 -7.4239,-7.39883 -1.75969,-0.85858 -22.08298,-18.43073 14.35882,-0.31675 17.76493,10.04041 z"
         id="path3150"
         style="fill:none;stroke:#ff66f0;stroke-width:3px;stroke-linecap:butt;stroke-linejoin:miter;stroke-opacity:1;display:inline"
         inkscape:connector-curvature="0" />
      <path
         d="m 244.58088,211.56108 -17.22477,23.43242 2.10954,4.03479 4.81766,-0.10629 16.9349,-17.19499 228.53245,2.58604 40.22705,-16.02887 -18.89329,-0.50837 0.34398,-4.70988 31.64807,-81.8483 39.71103,56.41191 115.71591,5.06364 19.88655,-8.56469 1.35218,-5.47398 -134.20464,-5.29887 -42.35308,-57.06873 -33.76669,90.20841 -2.05468,0.0461 0.0515,5.80367 1.50845,0.0433 0.2053,6.42158 -21.64526,8.90568 z"
         id="path3152"
         style="fill:none;stroke:#ff66f0;stroke-width:3px;stroke-linecap:butt;stroke-linejoin:miter;stroke-opacity:1;display:inline"
         inkscape:connector-curvature="0" />
      <path
         d="m 556.07962,243.38197 7.26293,0.25255 0.099,5.61425 80.51478,-19.09031 9.9431,0.13075 330.58612,-151.912934 160.03075,98.326864 0.3307,-7.46548 7.1274,-0.36804 2.067,-7.63203 -8.7986,-0.13546 -161.19018,-99.51578 -337.3093,152.62572 -11.35454,0.17511 -80.71534,20.53141 z"
         id="path3156"
         style="fill:none;stroke:#ff66f0;stroke-width:3px;stroke-linecap:butt;stroke-linejoin:miter;stroke-opacity:1;display:inline"
         inkscape:connector-curvature="0" />
      <path
         d="m 1090.5,196 -0.25,13.75 21,10.5 0.024,-6.25053 5.4324,-0.57357 2.4192,-5.70834 -7.7901,0.21686 z"
         id="path3422"
         style="fill:none;stroke:#ff66f0;stroke-width:3px;stroke-linecap:butt;stroke-linejoin:miter;stroke-opacity:1;display:inline"
         inkscape:connector-curvature="0" />
    </g>
  </g>
  <g
     inkscape:groupmode="layer"
     id="layer1"
     inkscape:label="Layer"
     style="display:inline">
    <g
       id="6"
       inkscape:label="#g4527">
      <path
         sodipodi:nodetypes="ccccccccc"
         inkscape:connector-curvature="0"
         style="fill:none;stroke:#ff00ff;stroke-width:1px;stroke-linecap:butt;stroke-linejoin:miter;stroke-opacity:1;display:inline"
         id="path4489"
         d="m 650.87395,404.16336 -0.29054,183.91524 18.2709,8.59935 0.52422,-206.96859 -8.63551,-0.23039 -0.42923,7.42696 -3.44757,-0.005 z" />
      <path
         d="M 590.55708,270.046 z"
         inkscape:connector-curvature="0"
         style="fill:none;stroke:#000000;stroke-width:1px;stroke-linecap:butt;stroke-linejoin:miter;stroke-opacity:1;display:inline"
         id="path3111" />
      <path
         d="M 303.66549,272.35965 z"
         inkscape:connector-curvature="0"
         style="fill:none;stroke:#000000;stroke-width:1px;stroke-linecap:butt;stroke-linejoin:miter;stroke-opacity:1;display:inline"
         id="path3154" />
      <path
         d="m 650.22802,239.17807 0.38388,99.11498 18.0174,0.12506 0.15164,-103.52705 z"
         id="path3088"
         style="fill:none;stroke:#ff00ff;stroke-width:1px;stroke-linecap:butt;stroke-linejoin:miter;stroke-opacity:1;display:inline"
         inkscape:connector-curvature="0"
         sodipodi:nodetypes="ccccc" />
      <path
         d="m 707.61856,234.05226 0.32474,104.83552 116.83964,-0.17906 0.56435,-102.78883 z"
         id="path3090"
         style="fill:none;stroke:#ff00ff;stroke-width:1px;stroke-linecap:butt;stroke-linejoin:miter;stroke-opacity:1;display:inline"
         inkscape:connector-curvature="0"
         sodipodi:nodetypes="ccccc" />
      <path
         d="m 450.62901,255.11587 -99.27889,-1.52075 0.11095,50.93872 29.96175,-0.309 69.57012,-29.12386 z"
         id="path3113"
         style="fill:none;stroke:#ff00ff;stroke-width:1px;stroke-linecap:butt;stroke-linejoin:miter;stroke-opacity:1;display:inline"
         inkscape:connector-curvature="0"
         sodipodi:nodetypes="cccccc" />
      <path
         d="m 847.87395,387.97586 0.14696,206.10274 25.9584,8.66185 0.52422,-214.96859 z"
         id="path3119"
         style="fill:none;stroke:#ff00ff;stroke-width:1px;stroke-linecap:butt;stroke-linejoin:miter;stroke-opacity:1;display:inline"
         inkscape:connector-curvature="0"
         sodipodi:nodetypes="ccccc" />
      <path
         d="M 340.68376,504.30224 z"
         inkscape:connector-curvature="0"
         style="fill:none;stroke:#000000;stroke-width:1px;stroke-linecap:butt;stroke-linejoin:miter;stroke-opacity:1;display:inline"
         id="path3117" />
      <path
         d="M 928.92719,511.24316 z"
         inkscape:connector-curvature="0"
         style="fill:none;stroke:#000000;stroke-width:1px;stroke-linecap:butt;stroke-linejoin:miter;stroke-opacity:1;display:inline"
         id="path3140" />
      <path
         d="m 269.81384,261.31716 0.37443,61.67523 7.50749,-1.75494 0.46752,-64.95007 z"
         id="path3157"
         style="fill:none;stroke:#ff00ff;stroke-width:1px;stroke-linecap:butt;stroke-linejoin:miter;stroke-opacity:1;display:inline"
         inkscape:connector-curvature="0"
         sodipodi:nodetypes="ccccc" />
      <path
         d="m 248.24708,416.1835 -0.33267,81.82777 2.98445,3.77018 0.64429,-83.51162 z"
         sodipodi:nodetypes="ccccc"
         inkscape:connector-curvature="0"
         style="fill:none;stroke:#ff00ff;stroke-width:1px;stroke-linecap:butt;stroke-linejoin:miter;stroke-opacity:1;display:inline"
         id="path3159" />
      <path
         d="m 263.14479,424.31522 -1.21656,95.61635 5.45933,5.71473 0.46752,-98.36086 z"
         id="path3161"
         style="fill:none;stroke:#ff00ff;stroke-width:1px;stroke-linecap:butt;stroke-linejoin:miter;stroke-opacity:1;display:inline"
         inkscape:connector-curvature="0"
         sodipodi:nodetypes="ccccc" />
      <path
         d="m 364.33376,426.54062 0.72799,106.93006 214.86655,-9.70989 -0.23959,-100.48219 z"
         id="path3163"
         style="fill:none;stroke:#ff00ff;stroke-width:1px;stroke-linecap:butt;stroke-linejoin:miter;stroke-opacity:1;display:inline"
         inkscape:connector-curvature="0"
         sodipodi:nodetypes="ccccc" />
      <path
         d="m 525.29052,251.42807 -0.17862,18.23998 14.3299,0.56256 0.0891,-22.15205 z"
         sodipodi:nodetypes="ccccc"
         inkscape:connector-curvature="0"
         style="fill:none;stroke:#ff00ff;stroke-width:1px;stroke-linecap:butt;stroke-linejoin:miter;stroke-opacity:1;display:inline"
         id="path3998" />
      <path
         d="m 564.54052,249.99057 -1.71462,-4.79375 -6.66217,0.044 0.13567,25.30225 27.1424,0.75006 0.0266,-24.90205 z"
         id="path4002"
         style="fill:none;stroke:#ff00ff;stroke-width:1px;stroke-linecap:butt;stroke-linejoin:miter;stroke-opacity:1;display:inline"
         inkscape:connector-curvature="0"
         sodipodi:nodetypes="ccccccc" />
      <path
         d="m 876.59045,206.04074 -0.11207,100.78522 176.70012,0.37351 0.6683,-95.76678 z"
         id="path3092"
         style="fill:none;stroke:#ff00ff;stroke-width:1px;stroke-linecap:butt;stroke-linejoin:miter;stroke-opacity:1;display:inline"
         inkscape:connector-curvature="0"
         sodipodi:nodetypes="ccccc" />
    </g>
  </g>
</svg>
